<svg width="174" height="44" viewBox="0 0 174 44" fill="none" xmlns="http://www.w3.org/2000/svg">
<path fill-rule="evenodd" clip-rule="evenodd" d="M94.384 11.9173V33.3574H99.1054V8.82129H93.997L94.384 11.9173ZM154.848 32.8543C155.545 33.1897 156.538 33.3574 157.828 33.3574H159.763C161.75 33.3574 163.504 33.28 165.027 33.1252C166.549 32.9446 167.852 32.764 168.935 32.5834L170.445 33.3574H173.618V8.82129H168.897V16.4453C168.123 16.3421 167 16.2518 165.53 16.1744C164.085 16.0712 162.176 16.0196 159.802 16.0196H157.828C156.564 16.0196 155.571 16.2002 154.848 16.5614C154.152 16.9226 153.649 17.3741 153.339 17.9159C153.055 18.4577 152.875 19.0124 152.797 19.58C152.746 20.1218 152.72 20.5862 152.72 20.9733V28.4038C152.72 28.8682 152.746 29.3842 152.797 29.9518C152.875 30.5194 153.055 31.0612 153.339 31.5772C153.649 32.0932 154.152 32.5189 154.848 32.8543ZM167.697 30.0292H159.299C158.061 30.0292 157.441 29.5132 157.441 28.4812V20.8959C157.441 19.8638 158.061 19.3478 159.299 19.3478H161.273C162.795 19.3478 164.227 19.3865 165.568 19.4639C166.91 19.5155 168.02 19.5671 168.897 19.6187V28.8682C168.897 29.3842 168.832 29.7067 168.703 29.8357C168.574 29.9647 168.239 30.0292 167.697 30.0292ZM127.747 16.0203V33.3581H132.469V20.2C132.469 19.8129 132.533 19.5807 132.662 19.5033C132.817 19.4001 133.139 19.3485 133.63 19.3485H142.066C143.305 19.3485 143.924 19.8645 143.924 20.8966V33.3581H148.645V20.974C148.645 20.587 148.607 20.1226 148.529 19.5807C148.478 19.0131 148.297 18.4584 147.988 17.9166C147.704 17.3748 147.214 16.9233 146.517 16.5621C145.82 16.2009 144.827 16.0203 143.537 16.0203H141.602C139.641 16.0203 137.9 16.0977 136.377 16.2525C134.855 16.4073 133.552 16.5879 132.469 16.7943L130.921 16.0203H127.747ZM108.47 33.3581C107.18 33.3581 106.186 33.1904 105.49 32.855C104.793 32.5196 104.29 32.0939 103.98 31.5779C103.696 31.0619 103.516 30.5201 103.438 29.9525C103.387 29.3849 103.361 28.8689 103.361 28.4045V20.974C103.361 20.587 103.387 20.1226 103.438 19.5807C103.516 19.0131 103.696 18.4584 103.98 17.9166C104.29 17.3748 104.793 16.9233 105.49 16.5621C106.212 16.2009 107.205 16.0203 108.47 16.0203H116.79C118.493 16.0203 119.822 16.188 120.776 16.5234C121.757 16.833 122.44 17.349 122.827 18.0714C123.24 18.7938 123.447 19.7613 123.447 20.974V26.7016H116.674C114.352 26.7016 112.456 26.65 110.985 26.5468C109.54 26.4436 108.573 26.3791 108.083 26.3533V28.4819C108.057 29.5139 108.676 30.0299 109.94 30.0299H111.914C113.307 30.0299 114.662 30.017 115.977 29.9912C117.319 29.9396 118.545 29.888 119.654 29.8364C120.763 29.759 121.654 29.6945 122.324 29.6429L123.872 32.1584C123.872 32.9582 121.331 33.3581 116.248 33.3581H108.47ZM108.083 23.3734H118.725V20.8966C118.725 20.3806 118.661 20.0194 118.532 19.8129C118.428 19.6065 118.093 19.4775 117.525 19.4259C116.958 19.3743 115.99 19.3485 114.623 19.3485H109.94C108.702 19.3485 108.083 19.8645 108.083 20.8966V23.3734ZM74.7193 33.3581C73.4293 33.3581 72.436 33.1904 71.7394 32.855C71.0428 32.5196 70.5397 32.0939 70.2301 31.5779C69.9463 31.0619 69.7657 30.5201 69.6883 29.9525C69.6367 29.3849 69.6109 28.8689 69.6109 28.4045V20.974C69.6109 20.587 69.6367 20.1226 69.6883 19.5807C69.7657 19.0131 69.9463 18.4584 70.2301 17.9166C70.5397 17.3748 71.0428 16.9233 71.7394 16.5621C72.4618 16.2009 73.4551 16.0203 74.7193 16.0203H83.0399C84.7428 16.0203 86.0715 16.188 87.0261 16.5234C88.0065 16.833 88.6902 17.349 89.0772 18.0714C89.49 18.7938 89.6964 19.7613 89.6964 20.974V26.7016H82.9238C80.6018 26.7016 78.7055 26.65 77.2349 26.5468C75.79 26.4436 74.8225 26.3791 74.3323 26.3533V28.4819C74.3065 29.5139 74.9257 30.0299 76.1899 30.0299H78.1637C79.5569 30.0299 80.9114 30.017 82.2272 29.9912C83.5688 29.9396 84.7944 29.888 85.9038 29.8364C87.0132 29.759 87.9033 29.6945 88.5741 29.6429L90.1221 32.1584C90.1221 32.9582 87.5808 33.3581 82.4981 33.3581H74.7193ZM74.3323 23.3734H84.975V20.8966C84.975 20.3806 84.9105 20.0194 84.7815 19.8129C84.6783 19.6065 84.3429 19.4775 83.7752 19.4259C83.2076 19.3743 82.2401 19.3485 80.8727 19.3485H76.1899C74.9515 19.3485 74.3323 19.8645 74.3323 20.8966V23.3734ZM44.8929 13.6976V33.3575H50.0014V23.7984H64.4753V19.9671H50.0014V14.3168H68.655V10.6015H44.5059L44.8929 13.6976Z" fill="white"/>
<path fill-rule="evenodd" clip-rule="evenodd" d="M1.61679 0.461914C0.723859 0.461914 0 1.18695 0 2.08133V32.4839C0 33.0679 0.313944 33.6067 0.821618 33.8939L11.5759 39.9785C12.1148 40.2834 12.7819 39.8934 12.7819 39.2735V14.2207C12.7819 13.5499 13.3248 13.0062 13.9945 13.0062H28.2079C29.1008 13.0062 29.8246 12.2811 29.8246 11.3867V10.2284C29.8246 9.33406 29.1008 8.60902 28.2079 8.60902H10.0087C9.11579 8.60902 8.39193 9.33406 8.39193 10.2284V31.7399C8.39193 32.3598 7.72483 32.7498 7.18594 32.4449L5.21116 31.3276C4.7035 31.0403 4.38957 30.5016 4.38957 29.9175V6.07341C4.38957 5.40263 4.93247 4.85885 5.60216 4.85885H32.6142C33.2839 4.85885 33.8268 5.40263 33.8268 6.07341V29.9176C33.8268 30.5016 33.5129 31.0403 33.0052 31.3276L22.5092 37.2663C21.9703 37.5712 21.3032 37.1812 21.3032 36.5613V22.351C21.3032 21.9038 21.6651 21.5413 22.1116 21.5413H23.8177C24.7106 21.5413 25.4345 20.8163 25.4345 19.9219V18.7638C25.4345 17.8694 24.7106 17.1444 23.8177 17.1444H18.5302C17.6373 17.1444 16.9134 17.8694 16.9134 18.7638V42.0535C16.9134 42.6375 17.2273 43.1763 17.735 43.4635L18.313 43.7906C18.8065 44.0698 19.4099 44.0698 19.9034 43.7906L37.3952 33.8939C37.9028 33.6067 38.2168 33.0679 38.2168 32.4839V2.08134C38.2168 1.18695 37.4929 0.461914 36.6 0.461914H1.61679Z" fill="#01BAC6"/>
</svg>
